<?xml version="1.0" standalone="no"?>
<!DOCTYPE svg PUBLIC "-//W3C//DTD SVG 20010904//EN"
 "http://www.w3.org/TR/2001/REC-SVG-20010904/DTD/svg10.dtd">
<svg version="1.0" xmlns="http://www.w3.org/2000/svg"
 width="600.000000pt" height="450.000000pt" viewBox="0 0 600.000000 450.000000"
 preserveAspectRatio="xMidYMid meet">

<g transform="translate(0.000000,450.000000) scale(0.100000,-0.100000)"
fill="#000000" stroke="none">
<path d="M5270 3643 c-104 -47 -306 -167 -560 -333 -420 -275 -569 -354 -819
-436 -130 -43 -146 -46 -175 -35 -102 41 -160 56 -345 88 -151 26 -238 36
-326 36 -111 1 -125 -1 -185 -27 -51 -22 -88 -30 -170 -36 -122 -10 -248 -40
-483 -116 -274 -89 -344 -85 -650 38 -210 84 -356 155 -637 312 -313 174 -387
212 -396 203 -12 -12 12 -30 161 -120 504 -303 809 -447 1084 -514 180 -43
234 -37 541 62 166 54 296 85 347 85 20 -1 -27 -29 -162 -98 -105 -53 -210
-112 -233 -131 -24 -18 -59 -62 -79 -96 -32 -56 -46 -69 -111 -106 -135 -77
-163 -113 -138 -174 18 -43 48 -62 120 -76 110 -23 303 35 421 126 65 50 179
106 287 140 l86 28 93 -57 c278 -173 670 -489 959 -773 103 -101 117 -119 83
-101 -40 22 -44 22 -70 7 -24 -13 -28 -21 -27 -57 0 -30 8 -50 24 -67 13 -14
21 -28 17 -31 -21 -22 -203 91 -332 206 -73 64 -235 171 -468 309 -49 28 -86
47 -82 41 3 -6 99 -73 213 -149 213 -143 273 -195 360 -314 64 -86 70 -113 42
-172 -37 -77 -115 -119 -186 -101 -14 4 -63 42 -108 84 -141 135 -285 241
-413 306 -89 44 -59 12 55 -60 157 -101 325 -247 425 -372 22 -28 24 -36 16
-62 -26 -73 -128 -118 -200 -87 -52 22 -169 113 -269 211 -84 83 -90 91 -84
121 7 37 -16 98 -49 133 -53 57 -122 67 -182 27 -20 -15 -38 -25 -39 -23 -40
91 -100 132 -180 125 -39 -3 -65 -16 -139 -67 -129 -89 -144 -89 -283 -11 -60
34 -171 93 -247 132 -77 38 -192 103 -257 144 -205 128 -322 182 -819 377
-168 65 -363 144 -433 174 -105 46 -131 54 -143 44 -8 -7 -15 -16 -15 -21 0
-22 236 -125 548 -240 485 -179 606 -232 833 -364 118 -68 220 -128 228 -132
11 -7 10 -15 -8 -43 -27 -45 -36 -109 -21 -155 15 -44 62 -100 102 -121 34
-18 111 -20 151 -5 16 6 29 11 30 11 1 0 2 -20 3 -44 1 -62 39 -124 97 -160
40 -24 61 -30 128 -34 l80 -5 15 -36 c8 -20 25 -47 37 -60 48 -52 147 -76 214
-50 21 8 29 7 32 -3 12 -37 78 -85 141 -102 80 -22 128 -12 179 34 l33 31 47
-18 c58 -22 155 -22 198 0 17 9 41 29 53 44 18 24 29 28 74 28 38 1 66 9 99
28 50 30 97 97 97 139 0 22 5 26 41 31 55 7 117 53 154 112 24 38 30 60 30
102 0 29 4 53 10 53 5 0 46 -18 91 -41 122 -62 216 -63 264 -2 33 42 26 83
-25 150 l-44 58 42 35 c80 65 190 175 275 274 122 141 199 188 478 290 249 90
508 163 896 251 81 18 155 38 165 43 15 9 12 11 -20 17 -44 8 -132 -7 -377
-66 -375 -90 -711 -200 -919 -301 -135 -65 -175 -99 -354 -300 -42 -47 -111
-114 -153 -148 l-77 -61 -36 34 c-57 54 -312 279 -358 316 -24 19 -43 38 -43
42 0 5 28 24 63 44 67 40 207 142 207 151 0 4 -12 -2 -27 -12 -97 -63 -231
-137 -260 -141 -29 -5 -41 1 -106 54 -104 86 -245 189 -380 278 -65 43 -125
88 -134 101 -15 24 -14 32 13 98 4 10 -17 -6 -47 -36 -47 -48 -65 -59 -139
-83 -47 -15 -103 -37 -126 -49 l-41 -23 3 46 4 46 -16 -44 c-24 -63 -88 -122
-185 -170 -139 -69 -288 -88 -367 -47 -68 35 -49 82 65 158 39 25 88 67 109
93 103 124 103 124 258 201 83 42 203 104 266 139 166 92 222 109 340 102 100
-6 496 -75 590 -103 79 -23 173 -72 223 -113 l42 -36 -18 30 c-11 17 -37 46
-60 66 l-40 36 44 7 c86 13 213 60 368 136 194 95 326 175 730 438 173 113
345 221 383 241 37 20 68 39 68 44 0 14 -45 5 -100 -20z m-3407 -2064 c61 -32
96 -60 123 -99 16 -24 24 -29 24 -17 0 15 3 16 21 6 21 -11 21 -11 -12 -46
-19 -20 -52 -43 -73 -53 l-39 -18 -76 74 c-42 40 -82 74 -88 74 -18 0 -16 51
3 78 20 28 62 29 117 1z m654 -19 c47 -21 81 -74 69 -106 -6 -15 -11 -12 -30
20 -44 74 -107 94 -167 53 -112 -75 -105 -227 11 -227 l41 0 -53 -67 c-30 -36
-66 -76 -81 -87 -86 -64 -287 29 -287 133 0 48 49 128 85 137 30 8 44 -1 27
-18 -7 -7 -12 -16 -12 -20 0 -5 28 14 63 40 68 53 199 139 231 152 33 13 58
11 103 -10z m-1 -74 c24 -24 44 -52 44 -63 0 -13 -21 -37 -56 -64 -45 -35 -65
-44 -96 -44 -100 0 -103 136 -4 196 46 28 64 24 112 -25z m1504 -4 c36 -32 42
-42 37 -63 -5 -21 -41 -49 -62 -49 -13 0 -78 67 -86 88 -27 71 41 86 111 24z
m-1204 -26 c52 -51 56 -81 17 -118 -48 -44 -105 -78 -133 -78 -42 0 -87 62
-74 103 9 29 113 137 132 137 8 0 34 -20 58 -44z m-1009 -33 c36 -37 60 -69
54 -71 -21 -7 -86 33 -108 67 -22 32 -31 71 -17 71 4 0 36 -30 71 -67z m844
13 c-57 -61 -64 -90 -31 -143 40 -67 97 -67 180 -2 80 63 46 17 -110 -150 -77
-82 -154 -154 -170 -161 -62 -26 -141 14 -181 91 -17 35 -18 40 -4 45 9 4 35
34 59 68 25 33 79 95 122 136 42 41 85 88 95 104 16 26 63 64 83 65 5 1 -14
-23 -43 -53z m258 -170 l22 -23 -38 -6 c-20 -4 -38 -5 -40 -3 -5 5 19 56 27
56 4 0 16 -11 29 -24z m-55 -85 c-36 -22 -70 -66 -79 -102 -4 -17 0 -33 15
-52 18 -22 29 -27 67 -27 30 0 58 8 81 22 l36 22 -33 -47 c-18 -26 -50 -66
-71 -89 -38 -40 -41 -41 -89 -35 -58 7 -126 39 -141 66 -37 71 44 178 183 241
54 25 71 25 31 1z m96 4 c33 -17 50 -43 50 -77 -1 -21 -2 -20 -14 7 -7 17 -28
43 -45 58 -37 30 -34 34 9 12z m-6 -39 c34 -45 33 -68 -5 -100 -55 -47 -122
-47 -139 0 -12 31 6 71 50 108 42 35 62 33 94 -8z m186 -87 c89 -67 96 -86 49
-121 -31 -24 -132 -35 -171 -19 -36 14 -36 36 2 111 17 33 30 66 30 75 0 8 2
15 4 15 3 0 41 -28 86 -61z"/>
<path d="M2090 1258 c0 -23 56 -95 80 -103 32 -10 34 0 5 19 -14 9 -39 35 -55
58 -17 22 -30 34 -30 26z"/>
<path d="M2189 1190 c13 -11 28 -20 35 -20 6 0 0 9 -14 20 -33 26 -52 25 -21
0z"/>
<path d="M2380 1067 c0 -18 35 -54 60 -62 36 -11 32 -1 -15 39 -26 21 -45 31
-45 23z"/>
<path d="M2420 1065 c7 -9 15 -13 17 -11 7 7 -7 26 -19 26 -6 0 -6 -6 2 -15z"/>
<path d="M2719 930 c13 -11 28 -20 35 -20 6 0 0 9 -14 20 -33 26 -52 25 -21 0z"/>
<path d="M2993 2802 c-24 -44 -38 -108 -24 -116 5 -3 12 13 16 36 4 24 14 58
21 77 20 47 12 49 -13 3z"/>
<path d="M2876 2748 c-9 -36 -7 -88 4 -88 6 0 10 25 10 55 0 59 -4 69 -14 33z"/>
<path d="M3030 2735 c-6 -15 -28 -52 -50 -83 -22 -30 -40 -60 -40 -66 1 -23
79 77 94 121 17 50 14 74 -4 28z"/>
<path d="M4109 2583 c10 -21 45 -74 77 -118 32 -44 77 -118 100 -165 33 -64
42 -77 37 -50 -10 62 -49 133 -122 223 -39 49 -78 101 -86 118 -9 16 -18 29
-20 29 -3 0 3 -17 14 -37z"/>
<path d="M2505 2600 c3 -5 16 -15 28 -21 22 -12 22 -12 3 10 -19 21 -43 30
-31 11z"/>
<path d="M2446 2586 c17 -8 44 -30 59 -50 34 -45 45 -40 16 7 -21 34 -58 57
-89 57 -10 -1 -3 -7 14 -14z"/>
<path d="M3996 2550 c19 -76 71 -184 144 -301 46 -73 93 -155 106 -183 12 -28
23 -43 23 -33 2 41 -42 133 -119 252 -45 70 -100 164 -121 208 -22 45 -37 71
-33 57z"/>
<path d="M3541 1845 c-17 -20 -31 -45 -31 -57 0 -26 -1 -26 43 40 41 60 34 69
-12 17z"/>
<path d="M3559 1784 c-18 -20 -28 -35 -20 -32 13 4 69 68 59 68 -2 0 -20 -16
-39 -36z"/>
<path d="M3820 1555 c-7 -9 -8 -15 -2 -15 5 0 12 7 16 15 3 8 4 15 2 15 -2 0
-9 -7 -16 -15z"/>
<path d="M3861 1546 c-13 -13 -21 -32 -19 -42 2 -15 8 -10 26 20 27 46 24 55
-7 22z"/>
<path d="M3490 1466 c-13 -25 -93 -86 -112 -86 -4 0 -8 -4 -8 -10 0 -14 17
-12 57 7 36 17 88 83 81 103 -2 7 -10 0 -18 -14z"/>
<path d="M3470 1389 c-25 -21 -39 -39 -32 -39 15 0 89 66 82 73 -3 3 -25 -13
-50 -34z"/>
<path d="M3211 1242 c-40 -16 -92 -65 -80 -77 5 -4 97 60 124 86 12 12 8 11
-44 -9z"/>
<path d="M3195 1185 c-16 -13 -25 -24 -18 -25 7 0 25 11 40 25 36 32 17 32
-22 0z"/>
</g>
</svg>
